<svg width="18" height="17" viewBox="0 0 18 17" fill="none" xmlns="http://www.w3.org/2000/svg">
<path d="M2 16.8C1.45 16.8 0.979 16.6174 0.587 16.2521C0.195667 15.8863 0 15.4467 0 14.9333V1.86667C0 1.35333 0.195667 0.913733 0.587 0.547867C0.979 0.182622 1.45 0 2 0H16C16.55 0 17.021 0.182622 17.413 0.547867C17.8043 0.913733 18 1.35333 18 1.86667V14.9333C18 15.4467 17.8043 15.8863 17.413 16.2521C17.021 16.6174 16.55 16.8 16 16.8H2ZM2 14.9333H8V1.86667H2V14.9333ZM10 14.9333H16V8.4H10V14.9333ZM10 6.53333H16V1.86667H10V6.53333Z" fill="#7D0AFA"/>
</svg>
