<svg width="18" height="17" viewBox="0 0 18 17" fill="none" xmlns="http://www.w3.org/2000/svg">
<path d="M2 16.8C1.45 16.8 0.979 16.6174 0.587 16.2521C0.195667 15.8863 0 15.4467 0 14.9333V1.86667C0 1.35333 0.195667 0.913733 0.587 0.547867C0.979 0.182622 1.45 0 2 0H16C16.55 0 17.021 0.182622 17.413 0.547867C17.8043 0.913733 18 1.35333 18 1.86667V14.9333C18 15.4467 17.8043 15.8863 17.413 16.2521C17.021 16.6174 16.55 16.8 16 16.8H2ZM2 14.9333H16V1.86667H2V14.9333ZM5 13.0667C5.28333 13.0667 5.521 12.9771 5.713 12.7979C5.90433 12.6193 6 12.3978 6 12.1333V9.33333C6 9.06889 5.90433 8.84707 5.713 8.66787C5.521 8.48929 5.28333 8.4 5 8.4C4.71667 8.4 4.479 8.48929 4.287 8.66787C4.09567 8.84707 4 9.06889 4 9.33333V12.1333C4 12.3978 4.09567 12.6193 4.287 12.7979C4.479 12.9771 4.71667 13.0667 5 13.0667ZM13 13.0667C13.2833 13.0667 13.5207 12.9771 13.712 12.7979C13.904 12.6193 14 12.3978 14 12.1333V4.66667C14 4.40222 13.904 4.1804 13.712 4.0012C13.5207 3.82262 13.2833 3.73333 13 3.73333C12.7167 3.73333 12.4793 3.82262 12.288 4.0012C12.096 4.1804 12 4.40222 12 4.66667V12.1333C12 12.3978 12.096 12.6193 12.288 12.7979C12.4793 12.9771 12.7167 13.0667 13 13.0667ZM9 13.0667C9.28333 13.0667 9.521 12.9771 9.713 12.7979C9.90433 12.6193 10 12.3978 10 12.1333V11.2C10 10.9356 9.90433 10.7137 9.713 10.5345C9.521 10.356 9.28333 10.2667 9 10.2667C8.71667 10.2667 8.47933 10.356 8.288 10.5345C8.096 10.7137 8 10.9356 8 11.2V12.1333C8 12.3978 8.096 12.6193 8.288 12.7979C8.47933 12.9771 8.71667 13.0667 9 13.0667ZM9 8.4C9.28333 8.4 9.521 8.3104 9.713 8.1312C9.90433 7.95262 10 7.73111 10 7.46667C10 7.20222 9.90433 6.9804 9.713 6.8012C9.521 6.62262 9.28333 6.53333 9 6.53333C8.71667 6.53333 8.47933 6.62262 8.288 6.8012C8.096 6.9804 8 7.20222 8 7.46667C8 7.73111 8.096 7.95262 8.288 8.1312C8.47933 8.3104 8.71667 8.4 9 8.4ZM2 14.9333V1.86667V14.9333Z" fill="#333333"/>
</svg>
